# xmcd
#
# Track frame offsets:
#	150
#	9515
#	19820
#	32400
#	36853
#	49363
#	55008
#	68118
#	77698
#	89928
#	93710
#	110323
#	115983
#	128698
#	137160
#	146933
#	159095
#	167273
#	178188
#
# Disc length: 2445 seconds
#
# Revision: 5
# Processed by: cddbd v1.5.2PL0 Copyright (c) Steve Scherf et al.
# Submitted via: EasyCDDAExtractor 10.2.0.1
#
DISCID=00098b13
DTITLE=Various Artists / Songs Of The West, Vol 4 (Rhino 1993)
DYEAR=1994
DGENRE=Country
TTITLE0=Al Caiola / The Magnificent Seven
TTITLE1=Al Caiola & His Orch / Bonanza
TTITLE2=Tex Ritter / High Noon (Do Not Forsake Me)
TTITLE3=CBS Orch / Gunsmoke
TTITLE4=Hugo Mentenegro / The Good, The Bad And The Ugly
TTITLE5=ABC Orch / The Lone Ranger (William Tell Overture)
TTITLE6=Gene Autry / South Of The Border (Down Mexico Way)
TTITLE7=Frankie Laine / Rawhide
TTITLE8=Roy Rogers w Spade Cooley & His Western Swing Band / On The Old Spanis
TTITLE8=h Trail
TTITLE9=NBC Orch / Wagon Train
TTITLE10=Marty Robbins / Ballad Of The Alamo
TTITLE11=Orch & Chorus Conducted by David Buttolph / Maverick
TTITLE12=Roy Rogers / Don't Fence Me In
TTITLE13=Johnny Cash / The Rebel-Johnny Yuma
TTITLE14=Johnny Western / The Ballad Of Paladin
TTITLE15=Hugh O'Brian w Ken Darby's Orch & Chorus / Legend Of Wyatt Earp
TTITLE16=ABC Orch Conducted by Herschel Burke Gilbert / The Rifleman
TTITLE17=Bill Hayes / The Ballad Of Davey Crockett
TTITLE18=Changing Channels / Changing Channels
EXTD=
EXTT0=
EXTT1=
EXTT2=
EXTT3=
EXTT4=
EXTT5=
EXTT6=
EXTT7=
EXTT8=
EXTT9=
EXTT10=
EXTT11=
EXTT12=
EXTT13=
EXTT14=
EXTT15=
EXTT16=
EXTT17=
EXTT18=
PLAYORDER=
